<svg id="Слой_1" data-name="Слой 1" xmlns="http://www.w3.org/2000/svg" viewBox="0 0 280 280"><defs><style>.cls-1{fill:#c72a19;}.cls-2{fill:#535353;}.cls-3{fill:#fff;}</style></defs><path class="cls-1" d="M280,280H0V0H280ZM2.3,1.87V278.42H278.68V1.87Z"/><path class="cls-1" d="M2.3,1.87H278.68V278.42H2.3Z"/><path class="cls-2" d="M61.68,212.5A44,44,0,0,1,57,208.19,114.68,114.68,0,0,1,60.29,58.66c1.3-1.45,2.61-2.88,4.08-4.49l-7-7.25c-31.17,33.71-43,72.41-33.13,116.87C35,212.08,74.88,249.8,123,257.92c42.46,7.17,79-4.89,109.86-33.8l-6.24-7.72c-1.47,1.29-2.6,2.24-3.69,3.25a114.43,114.43,0,0,1-150.19,4.27,42,42,0,0,1-4.28-4.72,37.56,37.56,0,0,0,3.74,1.4c7.62,2,14.23.33,19.49-5.64A18,18,0,0,0,94,194.41c-3.81-6.94-9.8-10.22-17.73-9.8C64.13,185.25,54.41,199,61.68,212.5Z"/><path class="cls-2" d="M105,226.62c6.19,9.06,15.46,11.88,25.69,13.23,4.26.56,6.64-.32,8.6-4.36,11.49-23.79,11.14-47.28-3-69.59s-35.15-33.16-61.6-32.16c-8.18.31-16.28,2.69-24.71,4.18a56.11,56.11,0,0,0,0-6.31c-.46-4.45,1.43-6.5,5.77-7.56a90.6,90.6,0,0,1,34.2-2c41.78,5.67,73.54,45.67,69.19,87.63-.79,7.54-2.63,15-4,22.44,8.64,5.19,17.63,7.14,27.14,1.94a15.73,15.73,0,0,1,3.25-1.29c3.41-1,5.29-3,5.61-6.68.59-6.63,1.94-13.22,2.11-19.85C195.16,131.14,126.52,73.77,54,89.83a8.62,8.62,0,0,0-5.28,4.24C40.63,112,38.36,130.79,41,150.26c1.35,10.17,4.26,19.45,13.32,25.56,17.6-11.57,34.86-11.08,48,1.37C115.73,190,116.65,206.94,105,226.62Z"/><path class="cls-2" d="M75.18,73.59C156.29,81.53,199.55,125.19,207,205c17.11,1.62,18.17,1.1,27.34-13.46a12,12,0,0,0,1.75-3c.77-2.94,2.14-6.06,1.77-8.92C228.9,109.7,170,51.25,99.75,42.58a9.16,9.16,0,0,0-5.62.92C88.5,47,83,50.84,77.71,54.82a6.79,6.79,0,0,0-2.41,4.49C75,64.27,75.18,69.26,75.18,73.59Z"/><path class="cls-2" d="M134.53,38.09A176.11,176.11,0,0,1,200.78,79.6c19,19,32.75,41.36,41.83,66.81,4.06-1.07,7.63-1,7.89-6.67,2.7-60-46.76-110.88-106.81-109.86C138.15,30,134.69,31.28,134.53,38.09Z"/><path class="cls-3" d="M105,226.62c11.64-19.68,10.72-36.66-2.74-49.43-13.13-12.45-30.39-12.94-48-1.37-9.06-6.11-12-15.39-13.32-25.56-2.6-19.47-.33-38.26,7.75-56.19A8.62,8.62,0,0,1,54,89.83c72.53-16.06,141.17,41.31,139.26,116.38-.17,6.63-1.52,13.22-2.11,19.85-.32,3.7-2.2,5.72-5.61,6.68a15.73,15.73,0,0,0-3.25,1.29c-9.51,5.2-18.5,3.25-27.14-1.94,1.35-7.47,3.19-14.9,4-22.44,4.35-42-27.41-82-69.19-87.63a90.6,90.6,0,0,0-34.2,2c-4.34,1.06-6.23,3.11-5.77,7.56a56.11,56.11,0,0,1,0,6.31c8.43-1.49,16.53-3.87,24.71-4.18,26.45-1,47.48,9.85,61.6,32.16s14.47,45.8,3,69.59c-2,4-4.34,4.92-8.6,4.36C120.47,238.5,111.2,235.68,105,226.62Z"/><path class="cls-3" d="M75.18,73.59c0-4.33-.19-9.32.12-14.28a6.79,6.79,0,0,1,2.41-4.49C83,50.84,88.5,47,94.13,43.5a9.16,9.16,0,0,1,5.62-.92c70.2,8.67,129.15,67.12,138.08,137,.37,2.86-1,6-1.77,8.92a12,12,0,0,1-1.75,3C225.14,206.1,224.08,206.62,207,205,199.55,125.19,156.29,81.53,75.18,73.59Z"/><path class="cls-3" d="M68.43,219.2a42,42,0,0,0,4.28,4.72,114.43,114.43,0,0,0,150.19-4.27c1.09-1,2.22-2,3.69-3.25l6.24,7.72C202,253,165.43,265.09,123,257.92c-48.09-8.12-88-45.84-98.75-94.13-9.91-44.46,2-83.16,33.13-116.87l7,7.25c-1.47,1.61-2.78,3-4.08,4.49A114.68,114.68,0,0,0,57,208.19a44,44,0,0,0,4.71,4.31Z"/><path class="cls-3" d="M134.53,38.09c.16-6.81,3.62-8.12,9.16-8.21,60.05-1,109.51,49.88,106.81,109.86-.26,5.69-3.83,5.6-7.89,6.67C233.53,121,219.81,98.6,200.78,79.6A176.11,176.11,0,0,0,134.53,38.09Z"/><path class="cls-3" d="M68.43,219.2l-6.75-6.7c-7.27-13.48,2.45-27.25,14.54-27.89,7.93-.42,13.92,2.86,17.73,9.8A18,18,0,0,1,91.66,215c-5.26,6-11.87,7.67-19.49,5.64A37.56,37.56,0,0,1,68.43,219.2Z"/></svg>